<?xml version="1.0" standalone="no"?><svg xmlns="http://www.w3.org/2000/svg" viewBox="0 0 1440 320"><path fill="#552d1ed9" fill-opacity="1" d="M0,224L8.9,240C17.8,256,36,288,53,282.7C71.1,277,89,235,107,197.3C124.4,160,142,128,160,138.7C177.8,149,196,203,213,192C231.1,181,249,107,267,90.7C284.4,75,302,117,320,128C337.8,139,356,117,373,133.3C391.1,149,409,203,427,202.7C444.4,203,462,149,480,138.7C497.8,128,516,160,533,192C551.1,224,569,256,587,261.3C604.4,267,622,245,640,202.7C657.8,160,676,96,693,101.3C711.1,107,729,181,747,213.3C764.4,245,782,235,800,224C817.8,213,836,203,853,202.7C871.1,203,889,213,907,186.7C924.4,160,942,96,960,96C977.8,96,996,160,1013,208C1031.1,256,1049,288,1067,266.7C1084.4,245,1102,171,1120,117.3C1137.8,64,1156,32,1173,64C1191.1,96,1209,192,1227,213.3C1244.4,235,1262,181,1280,133.3C1297.8,85,1316,43,1333,64C1351.1,85,1369,171,1387,181.3C1404.4,192,1422,128,1431,96L1440,64L1440,320L1431.1,320C1422.2,320,1404,320,1387,320C1368.9,320,1351,320,1333,320C1315.6,320,1298,320,1280,320C1262.2,320,1244,320,1227,320C1208.9,320,1191,320,1173,320C1155.6,320,1138,320,1120,320C1102.2,320,1084,320,1067,320C1048.9,320,1031,320,1013,320C995.6,320,978,320,960,320C942.2,320,924,320,907,320C888.9,320,871,320,853,320C835.6,320,818,320,800,320C782.2,320,764,320,747,320C728.9,320,711,320,693,320C675.6,320,658,320,640,320C622.2,320,604,320,587,320C568.9,320,551,320,533,320C515.6,320,498,320,480,320C462.2,320,444,320,427,320C408.9,320,391,320,373,320C355.6,320,338,320,320,320C302.2,320,284,320,267,320C248.9,320,231,320,213,320C195.6,320,178,320,160,320C142.2,320,124,320,107,320C88.9,320,71,320,53,320C35.6,320,18,320,9,320L0,320Z"></path></svg>